<?xml version="1.0" encoding="UTF-8" standalone="no"?>
<!-- Created with Inkscape (http://www.inkscape.org/) -->

<svg
   xmlns:dc="http://purl.org/dc/elements/1.1/"
   xmlns:cc="http://creativecommons.org/ns#"
   xmlns:rdf="http://www.w3.org/1999/02/22-rdf-syntax-ns#"
   xmlns:svg="http://www.w3.org/2000/svg"
   xmlns="http://www.w3.org/2000/svg"
   xmlns:sodipodi="http://sodipodi.sourceforge.net/DTD/sodipodi-0.dtd"
   xmlns:inkscape="http://www.inkscape.org/namespaces/inkscape"
   width="210mm"
   height="297mm"
   viewBox="0 0 210 297"
   version="1.1"
   id="svg8"
   enable-background="new"
   inkscape:version="0.92.2 5c3e80d, 2017-08-06"
   sodipodi:docname="logo.svg">
  <defs
     id="defs2">
    <filter
       inkscape:collect="always"
       style="color-interpolation-filters:sRGB"
       id="filter1557">
      <feBlend
         inkscape:collect="always"
         mode="overlay"
         in2="BackgroundImage"
         id="feBlend1559" />
    </filter>
  </defs>
  <sodipodi:namedview
     id="base"
     pagecolor="#ffffff"
     bordercolor="#666666"
     borderopacity="1.0"
     inkscape:pageopacity="0.0"
     inkscape:pageshadow="2"
     inkscape:zoom="0.49890312"
     inkscape:cx="596.87289"
     inkscape:cy="403.67982"
     inkscape:document-units="mm"
     inkscape:current-layer="layer2"
     showgrid="false"
     inkscape:window-width="1680"
     inkscape:window-height="1005"
     inkscape:window-x="0"
     inkscape:window-y="1"
     inkscape:window-maximized="1" />
  <metadata
     id="metadata5">
    <rdf:RDF>
      <cc:Work
         rdf:about="">
        <dc:format>image/svg+xml</dc:format>
        <dc:type
           rdf:resource="http://purl.org/dc/dcmitype/StillImage" />
        <dc:title></dc:title>
      </cc:Work>
    </rdf:RDF>
  </metadata>
  <g
     inkscape:groupmode="layer"
     id="layer4"
     inkscape:label="clarinet">
    <g
       id="g510"
       transform="matrix(0.26458333,0,0,0.26458333,12.472509,140.89507)">
      <g
         id="g453">
        <path
           id="path449"
           d="M 39.713,25.294 C 39.525,25.106 39.272,25.001 39.006,25.001 H 38.61 l -5.34,-5.34 -3.426,3.426 -1.592,-1.592 c -0.391,-0.391 -1.023,-0.391 -1.414,0 l -14.64,14.64 c -0.391,0.391 -0.391,1.023 0,1.414 l 1.591,1.591 -4.615,4.615 -0.461,-0.461 c -0.391,-0.391 -1.023,-0.391 -1.414,0 -0.391,0.391 -0.391,1.023 0,1.414 l 0.56,0.56 -6.429,7.366 C 1.425,52.64 1.418,52.644 1.413,52.65 l -1.059,1.217 c -0.53,0.71 -0.458,1.718 0.168,2.344 l 3.269,3.269 c 0.339,0.339 0.79,0.525 1.27,0.525 0.391,0 0.763,-0.124 1.134,-0.405 l 1.156,-1.011 c 0,0 0,0 0,0 l 7.381,-6.447 0.567,0.567 c 0.195,0.195 0.451,0.293 0.707,0.293 0.256,0 0.512,-0.098 0.707,-0.293 0.391,-0.391 0.391,-1.023 0,-1.414 l -0.467,-0.467 0.092,-0.092 c 0.183,0.167 0.418,0.267 0.668,0.267 h 2 c 0.266,0 0.52,-0.105 0.707,-0.293 l 1,-1 c 0.188,-0.188 0.293,-0.441 0.293,-0.707 v -2 c 0,-0.25 -0.1,-0.484 -0.267,-0.668 l 0.599,-0.599 c 0.183,0.167 0.418,0.267 0.668,0.267 h 2 c 0.266,0 0.52,-0.105 0.707,-0.293 l 1,-1 c 0.188,-0.188 0.293,-0.441 0.293,-0.707 v -2 c 0,-0.25 -0.1,-0.484 -0.267,-0.668 l 0.599,-0.599 c 0.183,0.167 0.418,0.267 0.668,0.267 h 2 c 0.266,0 0.52,-0.105 0.707,-0.293 l 1,-1 c 0.188,-0.188 0.293,-0.441 0.293,-0.707 v -2 c 0,-0.25 -0.1,-0.484 -0.267,-0.668 l 0.599,-0.599 c 0.183,0.167 0.418,0.267 0.668,0.267 h 2 c 0.266,0 0.52,-0.105 0.707,-0.293 l 1,-1 c 0.188,-0.188 0.293,-0.441 0.293,-0.707 v -2 c 0,-0.25 -0.1,-0.484 -0.267,-0.668 l 0.599,-0.599 c 0.183,0.167 0.418,0.267 0.668,0.267 h 2 c 0.266,0 0.52,-0.105 0.707,-0.293 l 1,-1 c 0.188,-0.188 0.293,-0.441 0.293,-0.707 v -2 c 0,-0.266 -0.105,-0.52 -0.293,-0.707 z m -17.346,3.5 0.885,0.885 -3.086,3.086 -0.885,-0.885 z m 2.328,-0.5 3.5,3.5 c 0.391,0.391 0.391,1.023 0,1.414 -0.195,0.195 -0.451,0.293 -0.707,0.293 -0.256,0 -0.512,-0.098 -0.707,-0.293 l -3.5,-3.5 c 0.195,0.195 0.451,0.293 0.707,0.293 0.256,0 0.512,-0.098 0.707,-0.293 0.391,-0.39 0.391,-1.023 0,-1.414 z m -4.707,6.707 c 0.256,0 0.512,-0.098 0.707,-0.293 0.391,-0.391 0.391,-1.023 0,-1.414 l 3,3 c 0.391,0.391 0.391,1.023 0,1.414 -0.195,0.195 -0.451,0.293 -0.707,0.293 -0.256,0 -0.512,-0.098 -0.707,-0.293 l -3,-3 c 0.195,0.196 0.451,0.293 0.707,0.293 z m 9.885,-10.47 c 0.391,-0.391 0.391,-1.023 0,-1.414 l 2.621,2.621 c 0.391,0.391 0.391,1.023 0,1.414 -0.391,0.391 -1.023,0.391 -1.414,0 l -2.621,-2.621 c 0.39,0.39 1.023,0.39 1.414,0 z m -2.328,-0.914 0.885,0.885 -3.764,3.764 -0.885,-0.885 z m -9.678,9.677 0.884,0.884 -3.548,3.548 -0.884,-0.884 z m -2.841,6.669 c 0.256,0 0.512,-0.098 0.707,-0.293 0.391,-0.391 0.391,-1.023 0,-1.414 l 2.121,2.121 c 0.391,0.391 0.391,1.023 0,1.414 -0.195,0.195 -0.451,0.293 -0.707,0.293 -0.256,0 -0.512,-0.098 -0.707,-0.293 L 14.319,39.67 c 0.195,0.196 0.451,0.293 0.707,0.293 z M 6.035,57.082 5.069,57.929 2.074,54.933 2.918,53.965 c 0.808,-0.923 2.357,-0.978 3.227,-0.108 0.438,0.438 0.666,1.019 0.646,1.636 -0.022,0.618 -0.289,1.182 -0.756,1.589 z m 12.971,-8.495 -0.414,0.414 H 17.42 L 17.039,48.62 17.006,47.415 17.42,47.001 h 1.171 l 0.032,0.032 c 10e-4,10e-4 0.002,10e-4 0.003,0.002 l 0.38,0.38 z m 5,-5 -0.414,0.414 H 22.42 L 22.039,43.62 22.006,42.415 22.42,42.001 h 1.171 l 0.032,0.032 c 10e-4,10e-4 0.002,10e-4 0.003,0.002 l 0.38,0.38 z m 5,-5 -0.414,0.414 H 27.42 L 27.039,38.62 27.006,37.415 27.42,37.001 h 1.171 l 0.032,0.032 c 10e-4,10e-4 0.002,10e-4 0.003,0.002 l 0.38,0.38 z m 5,-5 -0.414,0.414 H 32.42 L 32.039,33.62 32.006,32.415 32.42,32.001 h 1.171 l 0.032,0.032 c 0.001,10e-4 0.002,10e-4 0.003,0.002 l 0.38,0.38 z m 5,-5 -0.414,0.414 H 37.42 L 37.039,28.62 37.006,27.415 37.42,27.001 h 1.171 l 0.032,0.032 c 0.001,10e-4 0.002,10e-4 0.003,0.002 l 0.38,0.38 z"
           inkscape:connector-curvature="0" />
        <path
           id="path451"
           d="M 59.713,19.294 57.481,17.062 C 57.436,16.979 57.379,16.901 57.31,16.832 L 43.05,2.572 C 42.981,2.503 42.903,2.446 42.82,2.401 L 40.713,0.294 c -0.391,-0.391 -1.023,-0.391 -1.414,0 -0.391,0.391 -0.391,1.023 0,1.414 l 1.97,1.97 c -0.069,0.434 -0.18,1.097 -0.331,1.909 -0.932,5.022 -2.947,9.058 -6.279,12.635 l 7.118,7.118 c 3.674,-3.445 7.673,-5.499 12.517,-6.396 0.812,-0.151 1.476,-0.262 1.91,-0.331 l 2.095,2.095 c 0.195,0.195 0.451,0.293 0.707,0.293 0.256,0 0.512,-0.098 0.707,-0.293 0.39,-0.39 0.39,-1.023 0,-1.414 z"
           inkscape:connector-curvature="0" />
      </g>
      <g
         id="g455" />
      <g
         id="g457" />
      <g
         id="g459" />
      <g
         id="g461" />
      <g
         id="g463" />
      <g
         id="g465" />
      <g
         id="g467" />
      <g
         id="g469" />
      <g
         id="g471" />
      <g
         id="g473" />
      <g
         id="g475" />
      <g
         id="g477" />
      <g
         id="g479" />
      <g
         id="g481" />
      <g
         id="g483" />
    </g>
  </g>
  <g
     inkscape:groupmode="layer"
     id="layer7"
     inkscape:label="bass">
    <g
       id="g990"
       transform="matrix(0.26458333,0,0,0.26458333,5.4126207,97.14512)">
      <g
         id="g932">
        <g
           id="g930">
          <path
             id="path926"
             d="m 173.455,364.365 c -15.86,12.018 -16.939,26.225 -16.939,38.796 0,12.566 16.939,61.209 84.699,59.009 67.77,-2.176 64.487,-69.404 64.487,-69.404 0,0 0.032,-22.394 -30.052,-38.499 -26.661,-14.267 42.672,-72.21 13.662,-83.363 -8.925,-3.434 -22.782,16.819 -36.612,20.759 v 20.782 h -38.337 v -31.27 c -1.797,0.345 -3.761,0.589 -5.935,0.669 -15.302,0.541 -10.379,-36.624 -27.319,-35.525 -16.941,1.102 -8.74,44.278 0,69.953 8.736,25.691 8.187,36.07 -7.654,48.093 z m 98.912,69.4 c -3.174,0 -5.734,-2.561 -5.734,-5.727 0,-3.174 2.561,-5.743 5.734,-5.743 3.175,0 5.735,2.569 5.735,5.743 0.001,3.167 -2.56,5.727 -5.735,5.727 z m 11.487,-27.451 c 0,3.166 -2.577,5.734 -5.751,5.734 -3.15,0 -5.727,-2.568 -5.727,-5.734 0,-3.166 2.576,-5.734 5.727,-5.734 3.173,0 5.751,2.568 5.751,5.734 z m -13.939,-36.48 c 4.524,0 8.188,3.675 8.188,8.199 0,4.528 -3.663,8.195 -8.188,8.195 -4.536,0 -8.203,-3.667 -8.203,-8.195 0,-4.524 3.667,-8.199 8.203,-8.199 z m -61.488,-33.89 h 44.272 v 18.33 h -44.272 z m 0,38.928 h 44.272 v 18.33 h -44.272 z"
             inkscape:connector-curvature="0" />
          <path
             id="path928"
             d="m 205.075,38.541 c -3.312,0 -6.011,2.691 -6.011,6.015 0,3.312 2.699,6.011 6.011,6.011 1.486,0 2.851,-0.565 3.893,-1.477 l 4.665,3.55 -5.197,6.823 c 0,0 6.628,6.658 10.84,14.309 v 233.254 h 28.507 V 76.535 c 2.04,-3.108 4.745,-5.731 8.203,-6.135 V 35.958 l 10.183,-20.365 c 1.623,-3.24 0.806,-7.897 -1.803,-10.399 L 260.702,1.7 c -2.608,-2.506 -6.5,-2.208 -8.708,0.675 l -9.426,12.361 -5.534,-4.346 c 0.148,-0.524 0.24,-1.076 0.24,-1.649 0,-3.314 -2.681,-6.013 -6.009,-6.013 -3.314,0 -6.013,2.699 -6.013,6.013 0,3.32 2.699,6.011 6.013,6.011 1.545,0 2.943,-0.593 4.014,-1.559 l 5.298,4.149 -7.721,10.104 -4.787,-3.753 c 0.323,-0.727 0.501,-1.528 0.501,-2.376 0,-3.316 -2.697,-6.013 -6.029,-6.013 -3.312,0 -5.995,2.697 -5.995,6.013 0,3.32 2.683,6.011 5.995,6.011 1.289,0 2.464,-0.406 3.446,-1.096 l 4.861,3.821 -6.624,8.69 -4.695,-3.681 c 0.172,-0.551 0.271,-1.122 0.271,-1.729 0,-3.31 -2.683,-6.013 -6.009,-6.013 -3.316,0 -6.015,2.703 -6.015,6.013 0,3.32 2.699,6.015 6.015,6.015 1.513,0 2.894,-0.583 3.956,-1.519 l 4.474,3.521 -6.624,8.682 -4.845,-3.699 c 0.18,-0.565 0.307,-1.162 0.307,-1.795 0.021,-3.312 -2.67,-5.997 -5.984,-5.997 z m 0,8.736 c -1.499,0 -2.731,-1.223 -2.731,-2.729 0,-1.511 1.225,-2.741 2.731,-2.741 1.5,0 2.733,1.224 2.733,2.741 -0.008,1.506 -1.232,2.729 -2.733,2.729 z m 26.191,-35.798 c -1.503,0 -2.733,-1.222 -2.733,-2.737 0,-1.499 1.225,-2.733 2.733,-2.733 1.515,0 2.747,1.224 2.747,2.733 -0.008,1.514 -1.233,2.737 -2.747,2.737 z m -8.717,12.577 c -1.499,0 -2.729,-1.222 -2.729,-2.737 0,-1.503 1.222,-2.733 2.729,-2.733 1.519,0 2.749,1.223 2.749,2.733 0,1.514 -1.224,2.737 -2.749,2.737 z m -8.736,12.012 c -1.499,0 -2.733,-1.218 -2.733,-2.733 0,-1.499 1.227,-2.733 2.733,-2.733 1.515,0 2.749,1.228 2.749,2.733 0,1.515 -1.234,2.733 -2.749,2.733 z m 38.041,-16.903 c 2.425,0 4.372,1.956 4.372,4.374 0,2.419 -1.947,4.374 -4.372,4.374 -2.408,0 -4.368,-1.955 -4.368,-4.374 -10e-4,-2.419 1.959,-4.374 4.368,-4.374 z m -8.708,12.569 c 2.421,0 4.368,1.954 4.368,4.374 0,2.419 -1.947,4.372 -4.368,4.372 -2.416,0 -4.376,-1.953 -4.376,-4.372 0.003,-2.42 1.967,-4.374 4.376,-4.374 z m -8.741,12.028 c 2.425,0 4.368,1.956 4.368,4.374 0,2.415 -1.943,4.37 -4.368,4.37 -2.41,0 -4.374,-1.956 -4.374,-4.37 0,-2.418 1.964,-4.374 4.374,-4.374 z m -8.74,11.193 c 2.413,0 4.374,1.956 4.374,4.374 0,2.418 -1.961,4.374 -4.374,4.374 -2.422,0 -4.368,-1.956 -4.368,-4.374 0,-2.418 1.946,-4.374 4.368,-4.374 z"
             inkscape:connector-curvature="0" />
        </g>
      </g>
      <g
         id="g934" />
      <g
         id="g936" />
      <g
         id="g938" />
      <g
         id="g940" />
      <g
         id="g942" />
      <g
         id="g944" />
      <g
         id="g946" />
      <g
         id="g948" />
      <g
         id="g950" />
      <g
         id="g952" />
      <g
         id="g954" />
      <g
         id="g956" />
      <g
         id="g958" />
      <g
         id="g960" />
      <g
         id="g962" />
    </g>
    <path
       style="fill:#e3dbe2;stroke-width:2.00439715"
       d="m 234.47788,1001.4305 v -15.61195 l -18.70814,-18.33673 c -20.20809,-19.8069 -30.78647,-35.59405 -42.67536,-63.68865 -9.60274,-22.69219 -20.17787,-59.97642 -24.94304,-87.94049 -2.68852,-15.77731 -4.98855,-23.84113 -7.28931,-25.55606 -1.84878,-1.37802 -8.02826,-2.5055 -13.73219,-2.5055 -18.81264,0 -28.055422,-14.15081 -15.62781,-23.92637 l 5.30558,-4.17337 303.54882,0.52019 303.54884,0.52019 3.83156,4.73195 c 5.14557,6.35477 4.82421,11.49499 -1.08834,17.40753 -4.10994,4.10994 -6.8636,4.91988 -16.72672,4.91988 -12.51022,0 -18.44133,3.51537 -18.44133,10.93018 0,8.96129 -10.91709,56.12846 -18.07313,78.0848 -15.72516,48.24822 -34.82486,78.83408 -62.81328,100.58775 -7.52403,5.84797 -7.7597,6.41956 -9.01979,21.87679 l -1.29388,15.87196 -13.73178,-12.4537 -13.7318,-12.45366 H 418.63552 264.45427 l -9.4761,8.43426 c -5.21186,4.6388 -11.95655,10.6704 -14.9882,13.4036 l -5.51209,4.9693 z"
       id="path1619"
       inkscape:connector-curvature="0"
       transform="scale(0.26458333)" />
  </g>
  <g
     inkscape:groupmode="layer"
     id="layer5"
     inkscape:label="violin">
    <g
       id="g643"
       transform="matrix(0.26458333,0,0,0.26458333,52.865272,70.918861)">
      <path
         d="M 62.048,1.235 C 60.384,-0.429 57.607,-0.349 55.845,1.414 55.02,2.239 54.579,3.287 54.498,4.338 L 52.804,2.644 c -0.391,-0.391 -1.023,-0.391 -1.414,0 -0.391,0.391 -0.391,1.023 0,1.414 l 1.813,1.813 c 0.136,0.136 0.304,0.207 0.478,0.248 L 51.976,7.542 C 51.929,7.447 51.877,7.354 51.799,7.275 L 49.986,5.462 c -0.391,-0.391 -1.023,-0.391 -1.414,0 -0.391,0.39 -0.391,1.023 0,1.414 l 1.813,1.813 c 0.036,0.036 0.082,0.051 0.121,0.08 L 38.67,18.647 C 28.671,12 21.06,22.034 21.06,22.034 c 0,0 -1.238,0.472 -2.91,0.664 -1.506,2.297 2.98,2.106 1.787,4.85 -2.55,5.865 -8.106,3.629 -9.897,2.714 C 9.655,30.065 9.214,30.024 8.8,30.147 l -1.01,0.3 c -0.12,0.036 -0.193,0.156 -0.17,0.278 l 0.266,1.418 c 0,0 -7.237,1.86 -7.811,7.811 -0.485,5.029 1.353,11.666 6.433,16.746 5.08,5.08 11.717,6.918 16.746,6.433 5.951,-0.574 7.811,-7.811 7.811,-7.811 l 1.418,0.266 c 0.123,0.023 0.243,-0.05 0.278,-0.17 l 0.299,-1.007 c 0.123,-0.414 0.081,-0.855 -0.115,-1.24 -0.914,-1.791 -3.15,-7.348 2.714,-9.897 2.744,-1.193 2.553,3.293 4.85,1.787 0.191,-1.672 0.664,-2.91 0.664,-2.91 0,0 10.034,-7.611 3.387,-17.61 l 9.858,-11.812 c 0.003,0.003 0.004,0.008 0.008,0.011 l 1.813,1.813 c 0.195,0.195 0.451,0.293 0.707,0.293 0.256,0 0.512,-0.098 0.707,-0.293 0.391,-0.391 0.391,-1.023 0,-1.414 L 55.84,11.326 C 55.792,11.278 55.733,11.255 55.679,11.219 L 57.03,9.6 c 0.049,0.117 0.119,0.227 0.214,0.323 l 1.813,1.813 c 0.195,0.195 0.451,0.293 0.707,0.293 0.256,0 0.512,-0.098 0.707,-0.293 0.391,-0.391 0.391,-1.023 0,-1.414 L 58.939,8.79 C 59.993,8.71 61.044,8.269 61.87,7.442 63.632,5.676 63.712,2.899 62.048,1.235 Z m -44.194,49.597 -1.723,1.723 c -1.324,1.324 -3.471,1.324 -4.795,0 L 10.5,51.718 c -1.324,-1.324 -1.324,-3.471 0,-4.795 L 12.223,45.2 c 0.835,-0.835 2.188,-0.835 3.023,0 l 2.609,2.609 c 0.834,0.835 0.834,2.188 -0.001,3.023 z"
         id="XMLID_217_"
         inkscape:connector-curvature="0" />
      <g
         id="g590" />
      <g
         id="g592" />
      <g
         id="g594" />
      <g
         id="g596" />
      <g
         id="g598" />
      <g
         id="g600" />
      <g
         id="g602" />
      <g
         id="g604" />
      <g
         id="g606" />
      <g
         id="g608" />
      <g
         id="g610" />
      <g
         id="g612" />
      <g
         id="g614" />
      <g
         id="g616" />
      <g
         id="g618" />
    </g>
  </g>
  <g
     inkscape:groupmode="layer"
     id="layer6"
     inkscape:label="bow">
    <g
       id="g840"
       transform="matrix(0.26458333,0,0,0.26458333,12.435456,16.995156)">
      <g
         id="g784">
        <path
           id="path782"
           d="m 407.233,389.964 -2.962,2.953 -45.252,-45.264 -6.885,-6.885 C 241.947,228.611 115.534,57.927 92.91,21.525 70.282,-14.878 23.552,33.82 14.693,13.166 5.839,-7.499 3.869,2.341 3.869,2.341 c -5.408,25.087 36.898,74.278 36.898,74.278 0,0 0.541,-0.715 1.529,-1.832 19.879,32 97.857,154.444 183.015,247.307 -2.246,6.147 -1.843,12.126 1.85,16.014 l 75.049,79.059 c 6.363,6.692 19.824,4.62 30.067,-4.617 l 23.199,-20.931 c 5.174,-2.252 8.868,-4.444 11.445,-6.544 l 22.594,22.59 -2.954,2.953 46.246,46.234 c 5.703,5.715 14.947,5.715 20.658,0 5.707,-5.703 5.707,-14.956 0,-20.658 z m -54.165,-37.105 -8.187,8.188 -5.153,-5.149 8.311,-8.304 3.234,-3.242 5.153,5.149 z M 280.37,330.105 c -5.875,5.458 -14.627,5.858 -19.552,0.882 l -23.911,-24.193 -2.713,2.453 c -1.923,1.73 -3.51,3.618 -4.917,5.542 C 143.945,221.193 66.171,98.436 48.107,69.264 c 13.673,-11.123 45.18,-25.077 83.262,34.802 28.292,44.48 88.093,116.434 136.021,172.015 -2.049,3.467 -4.637,7.818 -8.825,11.31 l 23.528,23.804 c 4.921,4.98 4.156,13.444 -1.723,18.91 z m 26.308,57.214 c -8.455,0 -15.308,-6.845 -15.308,-15.292 0,-8.456 6.853,-15.312 15.308,-15.312 8.456,0 15.305,6.856 15.305,15.312 0,8.447 -6.857,15.292 -15.305,15.292 z"
           inkscape:connector-curvature="0" />
      </g>
      <g
         id="g786" />
      <g
         id="g788" />
      <g
         id="g790" />
      <g
         id="g792" />
      <g
         id="g794" />
      <g
         id="g796" />
      <g
         id="g798" />
      <g
         id="g800" />
      <g
         id="g802" />
      <g
         id="g804" />
      <g
         id="g806" />
      <g
         id="g808" />
      <g
         id="g810" />
      <g
         id="g812" />
      <g
         id="g814" />
    </g>
  </g>
  <g
     inkscape:groupmode="layer"
     id="layer8"
     inkscape:label="flute">
    <g
       id="g1146"
       transform="matrix(0.52916666,0,0,0.52916666,27.487968,106.87691)">
      <g
         id="g1090">
        <path
           id="path1088"
           d="M 5.971,17.224 8.676,19.929 3.065,25.54 C 2.437,26.168 1.876,25.988 0.894,25.006 0.147,24.259 -0.387,23.582 0.36,22.835 Z M 20.964,3.964 c -0.545,0.546 -0.545,1.431 0,1.976 0.254,0.253 0.666,0.47 1.091,0.578 l 1.441,-1.441 c 0.189,0.189 0.442,0.59 0.618,1.003 l 0.481,-0.481 c 0.195,-0.195 0.512,-0.195 0.707,0 0.195,0.195 0.195,0.512 0,0.707 l -11,11 c -0.097,0.097 -0.225,0.146 -0.353,0.146 -0.128,0 -0.256,-0.049 -0.354,-0.146 -0.195,-0.195 -0.195,-0.512 0,-0.707 l 0.452,-0.452 C 13.645,15.975 13.256,15.731 13.062,15.544 L 9.914,18.692 7.209,15.987 23.065,0.131 c 0.359,-0.359 1.122,0.09 1.868,0.837 0.747,0.747 1.228,1.477 0.841,1.867 L 23.528,5.082 C 23.421,4.649 23.2,4.223 22.941,3.964 22.395,3.418 21.51,3.418 20.964,3.964 Z m -3.916,9.182 c -0.402,-0.171 -0.79,-0.415 -0.984,-0.603 l -1.538,1.539 c -0.107,-0.434 -0.328,-0.86 -0.587,-1.119 -0.546,-0.546 -1.431,-0.546 -1.977,0 -0.545,0.546 -0.545,1.431 0,1.976 0.255,0.255 0.668,0.471 1.093,0.579 l 1.442,-1.442 c 0.189,0.189 0.442,0.59 0.618,1.003 z m 3,-3 C 19.646,9.975 19.259,9.731 19.064,9.544 l -1.538,1.538 c -0.107,-0.433 -0.328,-0.859 -0.587,-1.118 -0.546,-0.546 -1.431,-0.546 -1.977,0 -0.545,0.546 -0.545,1.431 0,1.976 0.255,0.254 0.667,0.471 1.092,0.579 l 1.442,-1.442 c 0.189,0.189 0.442,0.59 0.618,1.003 z M 20.527,8.082 C 20.42,7.649 20.199,7.223 19.94,6.964 c -0.546,-0.546 -1.431,-0.546 -1.977,0 -0.545,0.546 -0.545,1.431 0,1.976 0.255,0.254 0.667,0.47 1.091,0.579 l 1.442,-1.442 c 0.189,0.189 0.442,0.59 0.618,1.003 L 23.047,7.147 C 22.646,6.976 22.258,6.733 22.064,6.545 Z"
           style="fill:#030104"
           inkscape:connector-curvature="0" />
      </g>
      <g
         id="g1092" />
      <g
         id="g1094" />
      <g
         id="g1096" />
      <g
         id="g1098" />
      <g
         id="g1100" />
      <g
         id="g1102" />
      <g
         id="g1104" />
      <g
         id="g1106" />
      <g
         id="g1108" />
      <g
         id="g1110" />
      <g
         id="g1112" />
      <g
         id="g1114" />
      <g
         id="g1116" />
      <g
         id="g1118" />
      <g
         id="g1120" />
    </g>
  </g>
  <g
     inkscape:groupmode="layer"
     id="layer10"
     inkscape:label="keys">
    <g
       id="g1414"
       transform="matrix(0.26458333,0,0,0.26458333,130.37697,-6.595895)">
      <path
         id="path1359"
         d="M 4.924,54.931 C 2.165,54.973 -0.039,57.242 0,60.001 v 170 c -0.041,3.111 2.739,5.503 5.809,5 h 278.375 c 3.073,0.508 5.858,-1.886 5.816,-5 v -170 c 0.038,-2.788 -2.212,-5.068 -5,-5.068 H 284.926 5.003 c -0.025,-10e-4 -0.051,0 -0.076,0 z m 5.077,10 h 20 v 75.07 c 0,2.761 2.239,5 5,5 h 5 v 80 h -30 z m 50,0 h 20 v 160.07 h -30 v -80 h 5 c 2.761,0 5,-2.239 5,-5 z m 30,0 h 20 v 75.07 c 0,2.761 2.239,5 5,5 h 5 v 80 h -30 z m 50,0 h 10 v 75.07 c 0,2.761 2.239,5 5,5 h 5 v 80 h -30 v -80 h 5 c 2.761,0 5,-2.239 5,-5 z m 40,0 h 10 v 75.07 c 0,2.761 2.239,5 5,5 h 5 v 80 h -30 v -80 h 5 c 2.761,0 5,-2.239 5,-5 z m 40,0 h 20 v 160.07 h -30 v -80 h 5 c 2.761,0 5,-2.239 5,-5 z m 30,0 h 30 v 160.07 h -30 z"
         inkscape:connector-curvature="0"
         style="color-interpolation:sRGB;color-rendering:auto;image-rendering:auto;shape-rendering:auto" />
      <g
         id="g1361" />
      <g
         id="g1363" />
      <g
         id="g1365" />
      <g
         id="g1367" />
      <g
         id="g1369" />
      <g
         id="g1371" />
      <g
         id="g1373" />
      <g
         id="g1375" />
      <g
         id="g1377" />
      <g
         id="g1379" />
      <g
         id="g1381" />
      <g
         id="g1383" />
      <g
         id="g1385" />
      <g
         id="g1387" />
      <g
         id="g1389" />
    </g>
  </g>
  <g
     inkscape:groupmode="layer"
     id="layer9"
     inkscape:label="guitar">
    <g
       id="g1279"
       transform="matrix(0.079375,0,0,0.079375,169.72117,104.24095)">
      <path
         d="M 489.42,46.697 447.087,4.368 c -3.221,-3.218 -7.748,-4.795 -12.279,-4.269 -4.531,0.524 -8.556,3.097 -10.967,6.971 l -10.324,16.704 -3.055,-3.051 c -3.234,-3.235 -8.476,-3.235 -11.711,0 -3.236,3.236 -3.236,8.476 0,11.712 l 5.805,5.808 -2.036,3.284 -0.582,-0.573 c -3.235,-3.235 -8.48,-3.235 -11.716,0 -3.235,3.235 -3.235,8.477 0,11.712 l 3.332,3.332 -2.018,3.277 -3.963,-3.956 c -3.235,-3.235 -8.481,-3.235 -11.716,0 -3.235,3.235 -3.235,8.477 0,11.712 l 5.342,5.338 -123.206,123.205 c -31.771,-16.701 -69.759,-13.741 -94.135,10.605 -7.591,7.604 -13.153,16.55 -16.666,26.214 -7.956,21.865 -28.356,36.756 -51.621,37.67 -24.896,0.978 -48.725,10.394 -66.877,28.544 -41.315,41.332 -37.56,112.123 8.38,158.091 45.979,45.968 116.768,49.73 158.115,8.397 18.139,-18.158 27.55,-41.981 28.536,-66.885 0.909,-23.246 15.808,-43.654 37.662,-51.613 9.675,-3.52 18.605,-9.06 26.209,-16.655 24.362,-24.371 27.338,-62.371 10.627,-94.15 l 123.205,-123.198 5.32,5.331 c 1.618,1.618 3.756,2.427 5.859,2.427 2.133,0 4.235,-0.809 5.854,-2.427 3.234,-3.235 3.234,-8.477 0,-11.712 l -3.945,-3.956 3.302,-2.038 3.332,3.332 c 1.618,1.617 3.721,2.427 5.853,2.427 2.104,0 4.242,-0.81 5.859,-2.427 3.235,-3.235 3.235,-8.477 0,-11.712 l -0.582,-0.573 3.266,-2.031 5.823,5.801 c 1.618,1.617 3.72,2.426 5.858,2.426 2.103,0 4.236,-0.809 5.853,-2.426 3.235,-3.236 3.235,-8.477 0,-11.712 l -3.055,-3.051 16.693,-10.336 c 3.865,-2.402 6.439,-6.44 6.973,-10.97 0.517,-4.529 -1.052,-9.043 -4.271,-12.27 z M 163.774,420.503 c -3.235,3.235 -7.471,4.854 -11.712,4.854 -4.235,0 -8.476,-1.618 -11.711,-4.854 L 73.28,353.433 c -6.471,-6.471 -6.471,-16.953 0,-23.426 6.471,-6.471 16.952,-6.471 23.424,0 l 67.07,67.07 c 6.471,6.471 6.471,16.956 0,23.426 z M 238.903,305.79 c -14.075,14.05 -36.851,14.05 -50.926,0 -14.025,-14.049 -14.025,-36.844 0.014,-50.9 14.062,-14.06 36.837,-14.051 50.912,-0.009 14.039,14.065 14.039,36.86 0,50.909 z"
         id="XMLID_300_"
         inkscape:connector-curvature="0" />
      <g
         id="g1226" />
      <g
         id="g1228" />
      <g
         id="g1230" />
      <g
         id="g1232" />
      <g
         id="g1234" />
      <g
         id="g1236" />
      <g
         id="g1238" />
      <g
         id="g1240" />
      <g
         id="g1242" />
      <g
         id="g1244" />
      <g
         id="g1246" />
      <g
         id="g1248" />
      <g
         id="g1250" />
      <g
         id="g1252" />
      <g
         id="g1254" />
    </g>
  </g>
  <g
     inkscape:groupmode="layer"
     id="layer2"
     inkscape:label="saxophone"
     style="display:inline">
    <g
       id="g232"
       transform="matrix(7.9849762,0,0,7.7619672,46.506626,17.524527)">
      <g
         id="g171">
        <g
           id="g169">
          <path
             id="path159"
             d="m 14.759,12.073 c 0,0 -0.19,-0.472 -0.2,-0.492 0,0 -1.478,-2.864 -0.951,-4.901 0.324,0.073 0.564,0.061 0.646,-0.069 0.191,-0.304 -0.521,-1.095 -1.589,-1.77 -1.07,-0.674 -2.093,-0.975 -2.284,-0.673 -0.095,0.15 0.034,0.42 0.315,0.735 -0.025,1.419 0.373,3.296 0.373,3.296 0,0 0.144,0.614 0.245,0.895 l 0.755,1.953 0.532,1.182 c 0,0 -0.241,0.861 -1.021,0.46 L 10.126,9.46 9.623,9.685 C 9.482,9.749 9.317,9.685 9.255,9.546 9.191,9.405 9.253,9.239 9.394,9.176 L 9.898,8.95 9.559,8.2 9.057,8.426 C 8.916,8.489 8.75,8.426 8.688,8.286 8.625,8.145 8.688,7.98 8.829,7.916 L 9.332,7.69 8.985,6.921 8.483,7.148 C 8.342,7.211 8.177,7.15 8.113,7.007 8.05,6.868 8.113,6.702 8.254,6.64 L 8.756,6.413 8.412,5.645 7.909,5.872 C 7.768,5.935 7.603,5.872 7.539,5.731 7.476,5.592 7.539,5.426 7.68,5.363 L 8.183,5.136 5.998,0.279 5.983,0.286 c 0,0 -1.292,-1.17 -2.201,1.223 C 3.607,1.97 3.267,3.039 2.699,3.397 2.129,3.754 1.002,4.068 0.468,4.194 l 0.029,0.08 C 1.105,4.268 2.396,4.151 2.94,3.859 3.483,3.567 4.587,2.243 4.587,2.243 l 5.392,11.982 c 0.594,1.32 1.943,1.461 3.264,0.866 1.32,-0.594 2.11,-1.698 1.516,-3.018 z"
             style="fill:#030104"
             inkscape:connector-curvature="0" />
          <path
             id="path161"
             d="M 8.912,5.42 C 9.053,5.357 9.115,5.191 9.053,5.051 8.989,4.91 8.824,4.847 8.684,4.911 L 8.181,5.137 8.41,5.646 Z"
             style="fill:#030104"
             inkscape:connector-curvature="0" />
          <path
             id="path163"
             d="M 9.486,6.695 C 9.627,6.632 9.69,6.467 9.626,6.327 9.563,6.186 9.397,6.123 9.257,6.186 L 8.754,6.413 8.983,6.921 Z"
             style="fill:#030104"
             inkscape:connector-curvature="0" />
          <path
             id="path165"
             d="M 10.06,7.973 C 10.201,7.91 10.264,7.744 10.201,7.604 10.138,7.463 9.973,7.401 9.833,7.463 L 9.331,7.69 9.559,8.2 Z"
             style="fill:#030104"
             inkscape:connector-curvature="0" />
          <path
             id="path167"
             d="M 10.627,9.232 C 10.768,9.169 10.831,9.004 10.768,8.864 10.705,8.723 10.539,8.66 10.399,8.723 L 9.897,8.95 10.126,9.46 Z"
             style="fill:#030104"
             inkscape:connector-curvature="0" />
        </g>
      </g>
      <g
         id="g173" />
      <g
         id="g175" />
      <g
         id="g177" />
      <g
         id="g179" />
      <g
         id="g181" />
      <g
         id="g183" />
      <g
         id="g185" />
      <g
         id="g187" />
      <g
         id="g189" />
      <g
         id="g191" />
      <g
         id="g193" />
      <g
         id="g195" />
      <g
         id="g197" />
      <g
         id="g199" />
      <g
         id="g201" />
    </g>
  </g>
  <g
     inkscape:groupmode="layer"
     id="layer11"
     inkscape:label="bath"
     style="filter:url(#filter1557)">
    <g
       id="g1555"
       transform="matrix(0.79374999,0,0,0.79374999,21.416863,124.19518)">
      <path
         id="path1500"
         d="m 173.794,190.94 c -1.985,0 -3.929,-0.731 -5.489,-2.139 l -7.776,-7.018 H 64.472 l -7.776,7.018 c -2.452,2.212 -5.852,2.756 -8.87,1.412 -3.019,-1.342 -4.894,-4.228 -4.894,-7.531 v -7.069 c -3.974,-2.926 -12.93,-10.86 -19.593,-26.724 -6.207,-14.78 -8.707,-28.346 -9.607,-34.626 H 12.694 C 5.694,114.263 0,108.568 0,101.569 v -0.175 C 0,94.394 5.694,88.7 12.693,88.7 H 182 v -6.059 c 0,-2.209 1.791,-4 4,-4 2.209,0 4,1.791 4,4 V 88.7 h 3.583 V 51.777 c 0,-5.358 -4.359,-9.717 -9.717,-9.717 h -0.277 c -5.357,0 -9.717,4.359 -9.717,9.717 v 5.797 c 0,2.209 -1.791,4 -4,4 -2.209,0 -4,-1.791 -4,-4 v -5.797 c 0,-9.769 7.947,-17.717 17.717,-17.717 h 0.277 c 9.77,0 17.717,7.948 17.717,17.717 V 88.7 H 205 v -6.059 c 0,-2.209 1.791,-4 4,-4 2.209,0 4,1.791 4,4 v 6.077 c 6.678,0.362 12,5.909 12,12.675 v 0.175 c 0,7 -5.694,12.694 -12.693,12.694 h -1.038 c -0.9,6.28 -3.4,19.846 -9.608,34.626 -6.662,15.864 -15.618,23.797 -19.592,26.724 v 7.069 c 0,3.303 -1.875,6.189 -4.894,7.531 -1.098,0.488 -2.247,0.728 -3.381,0.728 z M 62.934,173.782 h 99.133 c 0.99,0 1.945,0.367 2.68,1.03 l 8.918,8.048 c 0.063,0.056 0.113,0.106 0.261,0.042 0.144,-0.064 0.144,-0.137 0.144,-0.221 v -9.192 c 0,-1.44 0.774,-2.77 2.028,-3.48 0.086,-0.05 10.7,-6.389 18.188,-24.218 7.837,-18.658 9.447,-35.715 9.462,-35.885 0.187,-2.062 1.914,-3.643 3.984,-3.643 h 4.576 c 2.588,0 4.693,-2.105 4.693,-4.694 v -0.175 c 0,-2.588 -2.105,-4.694 -4.693,-4.694 H 12.693 C 10.105,96.7 8,98.805 8,101.394 v 0.175 c 0,2.588 2.105,4.694 4.693,4.694 h 4.576 c 2.072,0 3.801,1.582 3.984,3.646 0.015,0.167 1.625,17.224 9.461,35.882 7.488,17.83 18.103,24.168 18.209,24.23 1.23,0.716 2.008,2.044 2.008,3.468 v 9.192 c 0,0.084 0,0.157 0.144,0.221 0.148,0.066 0.198,0.015 0.261,-0.042 l 8.918,-8.048 c 0.734,-0.662 1.689,-1.03 2.68,-1.03 z"
         inkscape:connector-curvature="0" />
      <g
         id="g1502" />
      <g
         id="g1504" />
      <g
         id="g1506" />
      <g
         id="g1508" />
      <g
         id="g1510" />
      <g
         id="g1512" />
      <g
         id="g1514" />
      <g
         id="g1516" />
      <g
         id="g1518" />
      <g
         id="g1520" />
      <g
         id="g1522" />
      <g
         id="g1524" />
      <g
         id="g1526" />
      <g
         id="g1528" />
      <g
         id="g1530" />
    </g>
  </g>
</svg>
